<svg xmlns="http://www.w3.org/2000/svg" viewBox="0 0 64 64" id="tombstone"><g data-name="Layer 2"><path fill="#160331" d="M52,14H41V4a1,1,0,0,0-1-1H24a1,1,0,0,0-1,1V14H12a1,1,0,0,0-1,1V31a1,1,0,0,0,1,1H23V47a1,1,0,0,0,1,1H40a1,1,0,0,0,1-1V32H52a1,1,0,0,0,1-1V15A1,1,0,0,0,52,14Z"></path><path fill="#070220" d="M38 4V14h3V4a1 1 0 0 0-1-1H37A1 1 0 0 1 38 4zM38 47a1 1 0 0 1-1 1h3a1 1 0 0 0 1-1V32H38zM52 14H49a1 1 0 0 1 1 1V31a1 1 0 0 1-1 1h3a1 1 0 0 0 1-1V15A1 1 0 0 0 52 14z"></path><path fill="#2a144c" d="M26 4V14H23V4a1 1 0 0 1 1-1h3A1 1 0 0 0 26 4zM26 47a1 1 0 0 0 1 1H24a1 1 0 0 1-1-1V32h3zM12 14h3a1 1 0 0 0-1 1V31a1 1 0 0 0 1 1H12a1 1 0 0 1-1-1V15A1 1 0 0 1 12 14z"></path><rect width="2" height="5.47" x="35" y="41.53" fill="#631799"></rect><path fill="#631799" d="M37,38.79H35V27a1,1,0,0,1,1-1H47V20H36a1,1,0,0,1-1-1V9H29v1.11H27V8a1,1,0,0,1,1-1h8a1,1,0,0,1,1,1V18H48a1,1,0,0,1,1,1v8a1,1,0,0,1-1,1H37Z"></path><path fill="#631799" d="M28 20H22.54V18H27V12.68h2V19A1 1 0 0 1 28 20zM29 47H27V28H16a1 1 0 0 1-1-1V19a1 1 0 0 1 1-1h3.76v2H17v6H28a1 1 0 0 1 1 1z"></path><path fill="#812d00" d="M60.65,59.71l-1-3.2A6.35,6.35,0,0,0,53.56,52H50.4a11,11,0,0,0-9.79-6H23.39a11.07,11.07,0,0,0-8.48,4h-3a7.88,7.88,0,0,0-7.57,5.59L3,59.71A1,1,0,0,0,4,61H59.69A1,1,0,0,0,60.65,59.71Z"></path><path fill="#602004" d="M41.18 50a2.75 2.75 0 0 0 2.63 2H50.4a11 11 0 0 0-9.79-6H38.69A7.86 7.86 0 0 1 40 47.55 11.5 11.5 0 0 1 41.17 50zM60.65 59.71l-1-3.2a5.17 5.17 0 0 0-.18-.51 6.31 6.31 0 0 0-4.63-3.87l.8 2.58a1 1 0 0 1-1 1.29h-.31c0-.63-.85-1.14-1.9-1.14s-1.9.51-1.9 1.14H47.87a3.16 3.16 0 0 0-4.61 0H36.53a3.39 3.39 0 0 0-2.63-1 3.38 3.38 0 0 0-2.62 1H27.62c-.21-1.09-1.75-1.93-3.61-1.93s-3.4.84-3.61 1.93H18.24c-.14-.54-.92-1-1.87-1a2.18 2.18 0 0 0-1.73.68A3.1 3.1 0 0 0 12.5 55a2.76 2.76 0 0 0-2.36 1h-6L3 59.71A1 1 0 0 0 4 61H59.69A1 1 0 0 0 60.65 59.71z"></path><ellipse cx="22.08" cy="49.49" fill="#a0380a" rx="2.46" ry="1.49"></ellipse><ellipse cx="29.07" cy="48" fill="#a0380a" rx="1.46" ry=".89"></ellipse></g></svg>